<svg width="670" height="364" viewBox="0 0 670 364" fill="none" xmlns="http://www.w3.org/2000/svg">
    <g>
        <clipPath id="clip-p">
            <path id="P"
                d="M174.666 311.832C174.666 314.819 173.983 317.379 172.618 319.512C171.252 321.603 169.439 323.181 167.178 324.248C164.959 325.315 162.57 325.848 160.01 325.848H147.722V343H146.314V297.688H159.754C163.935 297.688 167.455 298.797 170.314 301.016C173.215 303.235 174.666 306.84 174.666 311.832ZM147.722 298.904V324.632H160.074C162.42 324.632 164.596 324.141 166.602 323.16C168.607 322.179 170.207 320.728 171.402 318.808C172.639 316.888 173.258 314.563 173.258 311.832C173.258 307.309 171.935 304.024 169.29 301.976C166.687 299.928 163.508 298.904 159.754 298.904H147.722ZM183.369 297.688H184.777V318.36H184.905C185.843 316.141 187.337 314.307 189.385 312.856C191.433 311.363 193.971 310.616 197.001 310.616C200.969 310.616 203.913 311.811 205.833 314.2C207.753 316.589 208.713 319.64 208.713 323.352V343H207.305V323.48C207.305 320.152 206.473 317.379 204.809 315.16C203.187 312.941 200.585 311.832 197.001 311.832C194.611 311.832 192.478 312.387 190.601 313.496C188.766 314.563 187.337 316.035 186.313 317.912C185.289 319.789 184.777 321.837 184.777 324.056V343H183.369V297.688ZM247.941 327.192C247.941 332.227 246.639 336.28 244.037 339.352C241.434 342.381 237.765 343.896 233.029 343.896C228.335 343.896 224.687 342.381 222.085 339.352C219.525 336.28 218.245 332.227 218.245 327.192C218.245 322.157 219.525 318.125 222.085 315.096C224.645 312.067 228.293 310.552 233.029 310.552C237.765 310.552 241.434 312.067 244.037 315.096C246.639 318.125 247.941 322.157 247.941 327.192ZM219.653 327.192C219.653 331.757 220.805 335.491 223.109 338.392C225.413 341.251 228.719 342.68 233.029 342.68C237.381 342.68 240.709 341.272 243.013 338.456C245.359 335.597 246.533 331.843 246.533 327.192C246.533 322.584 245.359 318.872 243.013 316.056C240.709 313.197 237.381 311.768 233.029 311.768C228.719 311.768 225.413 313.197 223.109 316.056C220.805 318.872 219.653 322.584 219.653 327.192ZM259.982 311.512H269.262V312.728H259.982V336.6C259.982 338.691 260.473 340.227 261.454 341.208C262.436 342.189 263.78 342.68 265.486 342.68C266.809 342.68 268.046 342.488 269.198 342.104L269.454 343.192C268.302 343.661 266.958 343.896 265.422 343.896C263.289 343.896 261.604 343.277 260.366 342.04C259.172 340.76 258.574 338.947 258.574 336.6V312.728H252.366V311.768L258.574 311.512V302.808L259.982 302.296V311.512ZM304.503 327.192C304.503 332.227 303.202 336.28 300.599 339.352C297.997 342.381 294.327 343.896 289.591 343.896C284.898 343.896 281.25 342.381 278.647 339.352C276.087 336.28 274.807 332.227 274.807 327.192C274.807 322.157 276.087 318.125 278.647 315.096C281.207 312.067 284.855 310.552 289.591 310.552C294.327 310.552 297.997 312.067 300.599 315.096C303.202 318.125 304.503 322.157 304.503 327.192ZM276.215 327.192C276.215 331.757 277.367 335.491 279.671 338.392C281.975 341.251 285.282 342.68 289.591 342.68C293.943 342.68 297.271 341.272 299.575 338.456C301.922 335.597 303.095 331.843 303.095 327.192C303.095 322.584 301.922 318.872 299.575 316.056C297.271 313.197 293.943 311.768 289.591 311.768C285.282 311.768 281.975 313.197 279.671 316.056C277.367 318.872 276.215 322.584 276.215 327.192ZM309.881 350.488C309.881 348.483 310.479 346.733 311.673 345.24C312.911 343.747 315.065 342.403 318.137 341.208C315.492 340.525 314.169 339.203 314.169 337.24C314.169 336.173 314.617 335.256 315.513 334.488C316.452 333.677 317.775 333.059 319.481 332.632C316.964 332.12 315.001 330.968 313.593 329.176C312.228 327.384 311.545 324.995 311.545 322.008C311.545 318.595 312.612 315.885 314.745 313.88C316.921 311.875 319.887 310.872 323.641 310.872C324.708 310.872 325.583 310.936 326.265 311.064C326.991 311.149 327.801 311.299 328.697 311.512H338.873V312.728L330.681 312.536C332.175 313.261 333.412 314.435 334.393 316.056C335.375 317.677 335.865 319.661 335.865 322.008C335.865 325.592 334.799 328.365 332.665 330.328C330.575 332.248 327.524 333.208 323.513 333.208C321.337 333.208 319.46 333.592 317.881 334.36C316.303 335.085 315.513 336.045 315.513 337.24C315.513 339.416 317.753 340.504 322.233 340.504C328.335 340.504 332.623 341.208 335.097 342.616C337.572 344.024 338.809 346.115 338.809 348.888C338.809 352.216 337.401 354.819 334.585 356.696C331.812 358.573 327.908 359.512 322.873 359.512C318.607 359.512 315.364 358.723 313.145 357.144C310.969 355.608 309.881 353.389 309.881 350.488ZM334.457 322.008C334.457 318.979 333.497 316.568 331.577 314.776C329.7 312.984 327.055 312.088 323.641 312.088C320.271 312.088 317.647 312.984 315.769 314.776C313.892 316.568 312.953 318.979 312.953 322.008C312.953 325.251 313.849 327.725 315.641 329.432C317.433 331.139 320.1 331.992 323.641 331.992C327.225 331.992 329.913 331.139 331.705 329.432C333.54 327.725 334.457 325.251 334.457 322.008ZM337.401 348.888C337.401 347.181 336.889 345.795 335.865 344.728C334.884 343.704 333.177 342.936 330.745 342.424C328.313 341.912 324.708 341.656 319.929 341.656C316.729 342.765 314.489 344.024 313.209 345.432C311.929 346.883 311.289 348.568 311.289 350.488C311.289 353.005 312.249 354.925 314.169 356.248C316.089 357.613 318.991 358.296 322.873 358.296C327.524 358.296 331.108 357.485 333.625 355.864C336.143 354.243 337.401 351.917 337.401 348.888ZM346.867 318.232C346.867 315.8 346.761 313.56 346.547 311.512H347.827C348.041 313.56 348.147 315.907 348.147 318.552H348.275C349.982 313.261 353.587 310.616 359.091 310.616C359.646 310.616 360.137 310.659 360.563 310.744L360.435 311.896C360.009 311.853 359.539 311.832 359.027 311.832C355.571 311.832 352.905 313.091 351.027 315.608C349.193 318.125 348.275 321.411 348.275 325.464V343H346.867V318.232ZM362.041 334.808C362.041 332.12 362.702 330.008 364.025 328.472C365.347 326.936 367.374 325.848 370.105 325.208C372.835 324.568 376.462 324.248 380.985 324.248C382.563 324.248 383.779 324.269 384.633 324.312V322.008C384.633 315.224 381.347 311.832 374.777 311.832C372.729 311.832 370.915 312.088 369.337 312.6C367.801 313.112 366.265 313.859 364.729 314.84L364.089 313.88C367.161 311.704 370.723 310.616 374.777 310.616C382.286 310.616 386.041 314.413 386.041 322.008V336.28C386.041 338.712 386.147 340.952 386.361 343H385.081C384.867 340.952 384.761 338.947 384.761 336.984H384.633C383.566 339.245 381.945 340.973 379.769 342.168C377.635 343.363 375.075 343.96 372.089 343.96C368.889 343.96 366.414 343.171 364.665 341.592C362.915 339.971 362.041 337.709 362.041 334.808ZM384.633 332.248V325.528L381.113 325.464C376.889 325.464 373.518 325.741 371.001 326.296C368.483 326.808 366.585 327.747 365.305 329.112C364.067 330.435 363.449 332.333 363.449 334.808C363.449 337.368 364.195 339.331 365.689 340.696C367.225 342.061 369.358 342.744 372.089 342.744C374.905 342.744 377.251 342.168 379.129 341.016C381.049 339.864 382.435 338.477 383.289 336.856C384.185 335.235 384.633 333.699 384.633 332.248ZM426.219 327.32C426.219 330.477 425.643 333.315 424.491 335.832C423.339 338.349 421.654 340.333 419.435 341.784C417.217 343.192 414.614 343.896 411.627 343.896C408.939 343.896 406.593 343.384 404.587 342.36C402.625 341.293 400.854 339.779 399.275 337.816V358.616H397.867V318.232C397.867 315.8 397.761 313.56 397.547 311.512H398.827C399.041 313.56 399.147 316.12 399.147 319.192H399.275C400.342 316.376 402.006 314.243 404.267 312.792C406.571 311.341 409.174 310.616 412.075 310.616C415.062 310.616 417.601 311.341 419.691 312.792C421.825 314.2 423.446 316.184 424.555 318.744C425.665 321.261 426.219 324.12 426.219 327.32ZM424.811 327.32C424.811 324.419 424.321 321.795 423.339 319.448C422.358 317.101 420.907 315.245 418.987 313.88C417.11 312.515 414.827 311.832 412.139 311.832C409.537 311.832 407.254 312.429 405.291 313.624C403.371 314.819 401.878 316.397 400.811 318.36C399.787 320.323 399.275 322.435 399.275 324.696V335.64C400.982 338.072 402.817 339.864 404.779 341.016C406.742 342.125 409.025 342.68 411.627 342.68C414.401 342.68 416.769 342.019 418.731 340.696C420.737 339.331 422.251 337.496 423.275 335.192C424.299 332.845 424.811 330.221 424.811 327.32ZM436.369 297.688H437.777V318.36H437.905C438.843 316.141 440.337 314.307 442.385 312.856C444.433 311.363 446.971 310.616 450.001 310.616C453.969 310.616 456.913 311.811 458.833 314.2C460.753 316.589 461.713 319.64 461.713 323.352V343H460.305V323.48C460.305 320.152 459.473 317.379 457.809 315.16C456.187 312.941 453.585 311.832 450.001 311.832C447.611 311.832 445.478 312.387 443.601 313.496C441.766 314.563 440.337 316.035 439.313 317.912C438.289 319.789 437.777 321.837 437.777 324.056V343H436.369V297.688ZM477.108 353.048C476.254 355.309 475.23 356.952 474.036 357.976C472.884 359 471.39 359.512 469.556 359.512C468.532 359.512 467.636 359.363 466.868 359.064L467.188 357.976C467.913 358.189 468.702 358.296 469.556 358.296C471.22 358.296 472.542 357.805 473.524 356.824C474.505 355.843 475.316 354.413 475.956 352.536L479.156 343.128L466.804 311.512H468.276L479.924 341.336H479.988L490.996 311.512H492.468L477.108 353.048Z"
                fill="black" />
        </clipPath>
        <clipPath id="clip-f3">
            <path id="F3"
                d="M545.336 101.095C545.336 101.095 538.774 102.351 534.601 103.3C527.746 104.858 517.194 107.889 517.194 107.889L507.098 110.51C506.564 110.76 506.235 111.455 506.586 111.929C506.919 112.378 508.019 111.963 508.019 111.963C518.592 109.353 529.645 106.703 529.645 106.703C563.658 99.7166 591.84 97.9872 614.19 101.515C615.521 103.501 616.91 104.346 618.358 104.048L620.408 103.627C622.258 103.247 623.508 102.195 624.158 100.472L623.687 98.1831C623.654 98.0225 623.096 97.5513 622.013 96.7694C603.541 92.9473 577.982 94.3891 545.336 101.095Z"
                fill="black" />
        </clipPath>
        <clipPath id="clip-f2">
            <path id="F2"
                d="M548.262 13.2617C553.221 13.2617 555.7 16.0585 555.7 21.652C555.7 24.5138 554.907 28.2861 553.32 32.969L552.824 35.1154C547.451 49.6209 541.856 72.2426 536.039 102.981C535.126 107.802 534.208 112.822 533.285 118.042C528.524 150.823 526.144 177.619 526.144 198.432V207.115C526.144 213.099 526.474 219.408 527.136 226.042C526.805 227.148 526.375 227.766 525.846 227.896H524.755C523.168 227.896 522.375 223.506 522.375 214.725C522.044 212.254 521.879 206.66 521.879 197.945C521.879 168.724 525.149 137.406 531.688 103.992C535.483 84.6013 540.38 64.504 546.377 43.7007C546.509 43.7007 547.501 40.839 549.353 35.1154L550.146 33.2617C552.13 27.278 553.122 23.2455 553.122 21.1642V20.091C553.122 17.1642 551.237 15.5056 547.468 15.1154C543.435 15.1154 538.079 17.5544 531.4 22.4325L515.73 37.1642L512.303 40.0417C511.876 40.2296 511.663 40.4087 511.663 40.5788C474.37 72.839 446.797 88.9691 428.944 88.9691C424.58 88.9691 422.068 87.1154 421.406 83.4081L424.382 83.1154C424.382 85.7821 426.597 87.1154 431.027 87.1154C445.442 87.1154 468.849 73.8796 501.249 47.4081L508.985 40.2861L512.258 37.9447C527.202 23.8308 535.302 16.7414 536.558 16.6764C541.319 14.3999 545.22 13.2617 548.262 13.2617Z"
                fill="black" />
        </clipPath>
        <clipPath id="clip-f1">
            <path id="F1"
                d="M553.32 32.9692H553.617C569.553 31.9285 582.976 31.4082 593.886 31.4082H602.713C629.559 31.4082 649.957 34.3676 663.909 40.2863C664.636 41.0667 665 41.522 665 41.6521V43.5058C664.206 44.7415 663.049 45.3594 661.529 45.3594H659.842C658.652 45.3594 657.693 44.4814 656.966 42.7253C639.907 36.4163 617.392 33.2619 589.423 33.2619C567.801 33.5871 555.601 34.2049 552.824 35.1155H549.353H549.055C524.127 37.457 511.663 39.2781 511.663 40.5789L508.985 40.2863H508.787C492.917 43.2781 479.561 46.6928 468.717 50.5302C456.749 54.8228 445.541 60.6115 435.094 67.896C427.953 74.0098 424.382 78.6602 424.382 81.8472V83.1155L421.406 83.4082C421.406 76.3188 430.135 67.9285 447.591 58.2375C455.724 53.8147 466.601 49.522 480.222 45.3594C490.273 42.5627 500.951 40.0911 512.258 37.9448L515.73 37.457H515.928C523.995 36.2212 535.401 34.8228 550.146 33.2619L553.32 32.9692Z"
                fill="black" />
        </clipPath>
        <clipPath id="clip-on2">
            <path id="ON2"
                d="M374.361 134.969C382.852 134.969 393.524 131.837 406.375 125.573L409.014 124.885C411.309 124.885 412.609 126.413 412.915 129.469V129.813C412.915 132.41 410.85 141.729 406.719 157.771V158.115H407.063C418.308 136.42 426.226 125.573 430.816 125.573H432.766C434.449 125.573 435.864 132.066 437.012 145.052C439.077 152.92 442.787 156.854 448.142 156.854H450.093C458.201 156.854 471.779 149.139 490.827 133.708H491.859C492.318 133.785 492.548 134.014 492.548 134.396V134.625C472.659 150.743 458.507 158.802 450.093 158.802H447.109C439.842 158.802 435.405 153.378 433.799 142.531C432.804 132.753 431.925 127.865 431.16 127.865H430.816C428.215 130.385 425.078 135.045 421.407 141.844C413.145 156.74 408.67 164.569 407.981 165.333C407.14 165.944 406.184 166.25 405.113 166.25H404.424C402.741 166.25 401.632 164.951 401.097 162.354V160.406C401.097 157.504 403.277 148.375 407.637 133.021V130.729C407.637 129.583 407.216 128.819 406.375 128.438H405.342C404.883 128.438 399.031 130.5 387.786 134.625C383.809 135.542 379.028 136.306 373.443 136.917H370.804H370.46C367.63 136.917 363.193 136.382 357.15 135.313L351.872 133.365C351.03 133.365 350.15 131.951 349.232 129.125C349.232 126.375 353.172 124.656 361.051 123.969L359.33 125.573C354.817 125.573 352.56 126.642 352.56 128.781V130.385H352.904L358.756 133.708C360.669 134.319 361.969 134.625 362.657 134.625H365.87C367.018 134.625 368.662 134.74 370.804 134.969H374.361Z"
                fill="black" />
        </clipPath>
        <clipPath id="clip-on1">
            <path id="ON1"
                d="M361.051 123.969C367.018 123.969 371.034 126.681 373.099 132.104C373.099 134.014 373.52 134.969 374.361 134.969L373.443 136.917C370.613 155.403 365.488 164.646 358.068 164.646C352.178 162.889 349.232 157.58 349.232 148.719C349.232 143.983 350.112 138.865 351.872 133.365L352.904 130.385C354.358 128.934 355.849 128.208 357.379 128.208H359.1C359.942 128.59 360.363 129.125 360.363 129.813C359.292 131.722 358.756 133.021 358.756 133.708L357.15 135.313V135.656C354.931 142.99 353.822 148.642 353.822 152.615C353.822 159.108 355.658 162.354 359.33 162.354C364.914 160.292 368.739 151.813 370.804 136.917V134.969C370.804 130.462 368.509 127.521 363.92 126.146C361.701 125.764 360.171 125.573 359.33 125.573L361.051 123.969Z"
                fill="black" />
        </clipPath>
        <clipPath id="clip-s2">
            <path id="S2"
                d="M312.859 159.604C328.311 146.618 341.009 137.948 350.954 133.594H351.642C352.025 133.67 352.216 133.899 352.216 134.281C344.566 138.712 337.07 143.41 329.726 148.375C324.371 152.118 319.131 156.472 314.006 161.438L311.941 163.156C300.925 174.691 295.417 183.667 295.417 190.083V192.146C295.417 195.125 297.292 197.188 301.04 198.333H304.253C308.613 198.333 312.553 194.399 316.071 186.531C316.913 183.858 317.334 181.681 317.334 180H319.95C319.615 188.365 315.568 194.667 307.81 198.906C305.668 199.67 304.023 200.052 302.876 200.052C297.139 200.052 293.773 197.684 292.778 192.948V190.885C292.778 183.552 298.898 173.736 311.137 161.438L312.859 159.604Z"
                fill="black" />
        </clipPath>
        <clipPath id="clip-s1">
            <path id="S1"
                d="M313.203 116.177H314.694C317.984 116.788 319.628 118.202 319.628 120.417V122.479C319.628 124.313 318.252 125.573 315.498 126.261H314.35C312.361 125.879 311.367 124.886 311.367 123.281C311.367 122.594 311.788 121.83 312.629 120.99V120.646C312.629 120.264 312.4 120.073 311.941 120.073H311.711C309.187 120.073 305.821 122.823 301.614 128.323C299.625 131.226 298.63 134.09 298.63 136.917V138.636C298.63 142.455 303.373 149.445 312.859 159.604L314.006 161.438C317.984 166.861 319.973 171.865 319.973 176.448V178.854C319.973 179.241 319.965 179.622 319.95 180H317.334V176.792C317.334 172.361 315.536 167.816 311.941 163.156L311.137 161.438C299.28 149.139 293.352 142.035 293.352 140.125C292.97 138.75 292.778 137.566 292.778 136.573V134.511C292.778 130.156 296.335 125.229 303.45 119.729C307.121 117.361 310.372 116.177 313.203 116.177Z"
                fill="black" />
        </clipPath>
        <clipPath id="clip-y2">
            <path id="Y2"
                d="M267.879 144.938C275.835 140.813 284.823 137.07 294.844 133.708H295.303C295.456 133.708 295.647 133.861 295.876 134.167C295.876 134.625 293.123 135.771 287.615 137.604C278.741 141.195 272.163 144.25 267.879 146.771L262.945 149.292C255.372 153.264 246.842 159.413 237.357 167.74C229.554 175.608 224.965 180.879 223.588 183.552C216.244 194.247 212.572 204.139 212.572 213.229C212.572 221.021 215.326 225.91 220.834 227.896C221.905 228.202 222.861 228.354 223.702 228.354C231.046 228.354 238.81 221.518 246.995 207.844C249.443 203.643 252.121 197.646 255.028 189.854H258.1C253.33 201.513 247.946 211.023 241.947 218.386C236.898 223.733 232.805 226.979 229.669 228.125C227.374 229.118 225.615 229.615 224.391 229.615H222.67C216.474 229.615 212.457 225.91 210.622 218.5C210.316 217.202 210.163 215.712 210.163 214.031V213.229C210.163 200.014 217.697 185.538 232.767 169.802C241.105 162.087 248.64 156.167 255.372 152.042C260.421 149.139 262.945 147.649 262.945 147.573L267.879 144.938Z"
                fill="black" />
        </clipPath>
        <clipPath id="clip-y1">
            <path id="Y1"
                d="M229.899 121.219H231.161C232.002 121.219 232.576 121.562 232.882 122.25V122.365C232.882 122.823 231.926 124.007 230.013 125.917C226.877 130.958 224.965 135.771 224.276 140.354C223.358 143.639 222.899 146.924 222.899 150.208C223.205 154.715 224.085 156.969 225.538 156.969H226.342C229.095 156.969 234.106 150.361 241.373 137.146C244.203 132.104 247.263 128.132 250.553 125.229C251.853 123.931 252.924 123.281 253.765 123.281C253.918 123.205 254.301 123.167 254.913 123.167H256.29C261.95 123.167 265.661 127.712 267.42 136.802C267.726 139.476 267.879 142.073 267.879 144.594V144.938V146.771C267.879 157.083 264.896 170.757 258.929 187.792C258.655 188.487 258.379 189.174 258.1 189.854H255.028C260.306 174.347 262.945 161.208 262.945 150.438V149.292V147.573V147.344C262.945 135.809 260.115 128.438 254.454 125.229C254.224 125.153 254.071 125.115 253.995 125.115C252.082 125.726 249.711 128.056 246.881 132.104C244.127 136.535 240.685 142.302 236.554 149.406C232.499 155.747 228.751 158.917 225.309 158.917C221.943 158.917 219.648 156.931 218.424 152.958C218.042 151.431 217.85 149.941 217.85 148.49V147.802C217.85 138.865 220.451 130.806 225.653 123.625C227.183 122.021 228.598 121.219 229.899 121.219Z"
                fill="black" />
        </clipPath>
        <clipPath id="clip-a2">
            <path id="A2"
                d="M170.461 123.74H170.576C171.341 123.74 171.876 124.16 172.182 125C172.259 125.153 172.335 125.458 172.412 125.917C171.876 131.722 171.609 135.962 171.609 138.636C171.609 149.33 173.789 156.09 178.149 158.917C179.526 159.833 181.171 160.292 183.083 160.292C191.192 160.292 203.622 151.507 220.375 133.938C220.757 133.708 221.216 133.594 221.752 133.594H222.096C222.402 133.594 222.631 133.708 222.784 133.938V134.052C222.784 134.281 222.172 135.007 220.949 136.229C204.272 153.417 191.421 162.011 182.395 162.011C175.969 162.011 171.723 157.962 169.658 149.865C168.663 145.893 168.166 141.156 168.166 135.656C168.243 131.073 168.357 128.018 168.51 126.49V126.261H168.396C167.478 127.254 166.254 129.202 164.724 132.104C163.959 133.708 163.538 134.511 163.462 134.511L158.298 142.646C157.226 144.401 156.044 146.196 154.751 148.031H151.987C152.752 147.038 154.435 144.556 157.036 140.584L162.544 132.104C166.063 126.528 168.702 123.74 170.461 123.74Z" />
        </clipPath>
        <clipPath id="clip-a1">
            <path id="A1"
                d="M163.462 134.511C164.227 136.955 164.609 138.445 164.609 138.979V139.438C164.609 140.813 163.653 141.997 161.741 142.99C161.129 143.143 160.593 143.219 160.134 143.219C159.522 143.219 158.91 143.028 158.298 142.646C158.298 142.646 157.745 142.318 157.5 142C157.144 141.54 157.036 140.584 157.036 140.584V137.375C157.036 132.639 156.08 129.736 154.167 128.667L153.364 128.552C150.075 128.552 145.944 133.976 140.972 144.823C137.989 152.157 136.497 157.466 136.497 160.75C136.497 162.507 136.956 163.386 137.874 163.386C140.245 163.386 144.95 158.268 151.987 148.032H154.751C152.724 150.911 150.426 153.89 147.857 156.969C142.425 163.386 138.218 166.594 135.235 166.594H135.005C132.787 166.594 131.41 164.761 130.874 161.094C130.798 160.559 130.76 159.91 130.76 159.146V158C130.76 152.5 132.557 145.969 136.153 138.407C141.125 129.164 146.594 124.542 152.561 124.542H153.02C156.845 124.542 159.981 127.063 162.429 132.104H162.544L163.462 134.511Z" />
        </clipPath>
        <clipPath id="clip-j2">
            <path id="J2"
                d="M119.859 103.802H120.203C125.787 102.198 132.787 100.708 141.201 99.3335C141.584 99.4863 141.89 99.5627 142.119 99.5627V100.25C142.119 101.09 138.409 101.969 130.989 102.886C123.339 104.719 119.515 105.827 119.515 106.208L113.892 107.698C110.297 108.004 99.6639 112.625 81.9933 121.563C71.8958 126.834 59.8477 135.924 45.8489 148.834C30.0907 165.715 19.649 180.84 14.5238 194.209C9.934 205.972 7.63912 215.674 7.63912 223.313C7.63912 238.743 13.6441 248.865 25.6539 253.677C29.7847 254.67 33.1123 255.167 35.6367 255.167C54.5312 255.167 72.1636 237.674 88.5337 202.688C96.2418 185.639 102.322 167.743 106.773 149H111.256C110.914 150.211 110.569 151.378 110.22 152.5C104.33 175.952 95.7244 197.455 84.403 217.011C68.7213 243.67 52.0451 257 34.3745 257C21.8291 257 12.8026 251.004 7.29488 239.011C5.76496 234.58 5 229.653 5 224.229C5 203.375 15.8242 180.153 37.4726 154.563C50.9359 140.813 61.6454 131.608 69.601 126.948C83.1408 117.858 97.981 110.754 114.122 105.636L119.859 103.802Z" />
        </clipPath>

        <clipPath id="clip-j1">
            <path id="J1"
                d="M82.2228 4H84.4029C101.921 4 113.433 17.6354 118.941 44.9063C120.547 53.0799 121.351 62.2084 121.351 72.2917V79.5104C121.351 84.7813 120.853 92.8785 119.859 103.802L119.515 106.208C117.04 123.989 114.287 138.253 111.256 149H106.773C107.049 147.84 107.318 146.677 107.581 145.51C109.417 138.559 111.521 125.955 113.892 107.698L114.122 105.635C115.116 94.941 115.613 85.2014 115.613 76.4167C115.613 49.757 110.603 30.125 100.582 17.5208C94.9977 11.7153 89.2987 8.8125 83.485 8.8125H81.3049C70.3659 8.8125 60.1537 16.1458 50.6682 30.8125C44.0895 42.4236 40.8002 53.9201 40.8002 65.3021C40.8002 74.9271 42.9803 84.4375 47.3406 93.8334C50.5534 94.5972 52.1598 95.9341 52.1598 97.8438V98.4167C52.1598 100.479 50.3622 101.663 46.7669 101.969C43.1715 101.969 40.0735 97.5764 37.4726 88.7917C34.8717 82.5278 33.5713 75.4236 33.5713 67.4792V66.2188C33.5713 48.0382 40.2647 31.7292 53.6515 17.2917C63.29 8.43055 72.8138 4 82.2228 4Z" />
        </clipPath>
    </g>
    <path class="clip p" clip-path="url(#clip-p)" stroke="#fff" stroke-width="70"
        d="M115.5 327H525" />
    <path class="clip f3" clip-path="url(#clip-f3)" stroke="#fff" stroke-width="10"
        d="M505 112L512.5 110L520.5 108L530.5 105.5L542 103L564.5 99.5L591 97.5H607.5L618 99.5L626 104.5" />
    <path class="clip f2" clip-path="url(#clip-f2)" stroke="#fff" stroke-width="10"
        d="M422.5 82.5L423.5 86L426 87.5L429.5 88H433L437.5 87L442 86L446 84.5L456 80L465.5 74.5L476.5 67.5L486 60.5L497 52L513 38.5L520 32L527 25.5L535 18.5L540 16L544.5 14.5L548.5 14L551 14.5L553 16L554.5 18.5V22.5L553 30L547.5 46.5L541 72L537 87.5L533.5 104L530 124L527 146L525.5 164L524 187V213.5L524.5 221L525 226L526 230" />
    <path class="clip f1" clip-path="url(#clip-f1)" stroke="#fff" stroke-width="10"
        d="M666.5 46.5L659.5 41L653 39L642 36.5L636 35L629 34L619.5 33L607.5 32.5H593.5H581L564 33L549.5 34L529.5 36.5L510.5 39L487.5 44L473.5 48L458 54L444.5 61L435.5 66.5L429.5 71.5L425 77L423 81V85.5" />

    <path class="clip on2" clip-path="url(#clip-on2)" stroke="#fff" stroke-width="8"
        d="M361 125H359H358H356L354.5 125.5L352.5 126.5L351 128L350.5 129.5L351 131L352 131.5L353 132L355.5 133.5L357 134L360 135L364.5 135.5L369 136H374L378.5 135.5L387 134L391.5 132.5L397 130.5L403 128L407.5 127H409L410.5 128.5V130L410 135L408 143L406.5 148.5L405 155L403.5 160.5L404 163H405.195L407 162L410 157L415.5 147.5L423 135L428 128.5L430.5 126.5L432 127L433.313 129.5L434.5 137L436 147.5L439 153L443 157C444 157.167 446.1 157.5 446.5 157.5C447 157.5 451 157.5 452 157.5C453 157.5 458.5 155.5 459 155.5C459.4 155.5 464.167 153.167 466.5 152L474 147.5L483 141L494 132.5" />
    <path class="clip on1" clip-path="url(#clip-on1)" stroke="#fff" stroke-width="8"
        d="M359 127.5L354 135L352.5 139.5L351.5 147.5V154.5L354 161L357.5 163.5H358.5H360L362.5 162L365.5 158.5L367 156L369.5 150.5L371 144.5L372.5 135.5L372 132.5L371 130L369 127.5L365.5 125.5L363.5 125L358.5 124.5" />

    <path class="clip s2" clip-path="url(#clip-s2)" stroke="#fff" stroke-width="15"
        d="M318.5 178.5V182.5L318 185L316.5 188.5L314.5 192L312 195L309 197.5L307 198.5L305 199H303.5H299.5L297.5 198L294.5 195L294 190.5L294.5 187L296 182.5L302 173L309.5 164L320.5 154.5L329.5 147.5L338 142L347.5 136L354 133" />
    <path class="clip s1" clip-path="url(#clip-s1)" stroke="#fff" stroke-width="15"
        d="M320 127L315.5 121.5L312 119.5L306.5 120L301 125L296.5 131L295.5 134V138L296.5 141.5L301 148L305.5 153.5L310 158.5L313 162L315 165L317 169L318 172L318.5 175.5V179V182" />

    <path class="clip y2" clip-path="url(#clip-y2)" stroke="#fff" stroke-width="15"
        d="M257 189L255 194L251.5 201.5L249.5 205.5L246.5 210.5L242.5 216.5L239 220.5L234.5 224.5L231 227L227 228.5L225 229H221.5L218.5 228L216.5 226.5L213.5 223.5L211.5 218V211L212 207L213 201.5L215.5 196L217 192.5L221 185.5L226 178.5L231.5 172.5L238 166L245.5 160L256.5 152L263.5 148L272.5 143.5L283.5 138.5L294 134.5L298.5 133" />
    <path class="clip y1" clip-path="url(#clip-y1)" stroke="#fff" stroke-width="15"
        d="M233.5 120L228 125L226 127.5L223 133.5L221.5 139.5L220.5 146.5V151.5L221.5 155L223 157.5L225.5 158C226 157.833 227.1 157.5 227.5 157.5C227.9 157.5 229.667 156.167 230.5 155.5L233 152.5L237 146.5L241 140L244 134.5L248.5 128.5L251 126L253.5 124H256.5L260 126L262.5 129L264 134.5L265 139L265.5 145V153.5L265 159L263.5 166.5L262 172.5L260.5 178.5L258.5 184L256 192" />

    <path class="clip a2" clip-path="url(#clip-a2)" stroke="#fff" stroke-width="15"
        d="M152.5 149L157.5 142L163.5 132.5L165.5 129L167 127L168.5 125.5L169.5 125H170.5V126.5L170 131V136V141.31L172 153L174 156.5L176.5 159L178.5 160.5L181.5 161H185L191 159L194.5 157.5L202 152L209 146.5L217 139L220.5 135.5L224 132.5" />
    <path class="clip a1" clip-path="url(#clip-a1)" stroke="#fff" stroke-width="15"
        d="M162 144L160.5 137L158.5 131L156 127.5L153.5 126.5L148 127.5L142.5 133.5L139.5 139L135 150.5L133 160L134 164.5L136 165L139 164L142.5 161.5L147 156.5L150.5 152L154 147" />

    <path class="clip j2" clip-path="url(#clip-j2)" stroke="#fff" stroke-width="15"
        d="M109.5 147L107.5 155.5L102 174L96.5 189L89 205L83 217L74.5 230L66.5 240L59 247L50.5 252.5L45.5 254.5L38 256H32.5L25 254.5L19.5 252L14 247.5L9.5 241L7 232.5L6 222.5L7 213L9.5 203L14.5 191L21 178.5L28 168L35.5 158.5L41.5 152L49 144.5L63.5 132.5L78.5 122.5L97 113L110.5 107.5L122.5 104L139.5 100.5L144.5 99.5" />
    <path class="clip j1" clip-path="url(#clip-j1)" stroke="#fff" stroke-width="15"
        d="M50.5 102L44 95L38 78L36 67L38.5 49.5L47.5 28L61.5 13.5L71 8L81.5 6L90.5 7L101 13L111 28L116 45L118.5 67.5V92L117 107.5L114.5 123.5L112 137L110 146.5L109 150.5" />
</svg>