<svg width="660" height="264" viewBox="0 0 660 253" fill="none" xmlns="http://www.w3.org/2000/svg">
    <g>
        <clipPath id="clip-f3">
            <path id="F3"
                d="M545.336 101.095C545.336 101.095 538.774 102.351 534.601 103.3C527.746 104.858 517.194 107.889 517.194 107.889L507.098 110.51C506.564 110.76 506.235 111.455 506.586 111.929C506.919 112.378 508.019 111.963 508.019 111.963C518.592 109.353 529.645 106.703 529.645 106.703C563.658 99.7166 591.84 97.9872 614.19 101.515C615.521 103.501 616.91 104.346 618.358 104.048L620.408 103.627C622.258 103.247 623.508 102.195 624.158 100.472L623.687 98.1831C623.654 98.0225 623.096 97.5513 622.013 96.7694C603.541 92.9473 577.982 94.3891 545.336 101.095Z"
                fill="black" />
        </clipPath>
        <clipPath id="clip-f2">
            <path id="F2"
                d="M548.262 13.2617C553.221 13.2617 555.7 16.0585 555.7 21.652C555.7 24.5138 554.907 28.2861 553.32 32.969L552.824 35.1154C547.451 49.6209 541.856 72.2426 536.039 102.981C535.126 107.802 534.208 112.822 533.285 118.042C528.524 150.823 526.144 177.619 526.144 198.432V207.115C526.144 213.099 526.474 219.408 527.136 226.042C526.805 227.148 526.375 227.766 525.846 227.896H524.755C523.168 227.896 522.375 223.506 522.375 214.725C522.044 212.254 521.879 206.66 521.879 197.945C521.879 168.724 525.149 137.406 531.688 103.992C535.483 84.6013 540.38 64.504 546.377 43.7007C546.509 43.7007 547.501 40.839 549.353 35.1154L550.146 33.2617C552.13 27.278 553.122 23.2455 553.122 21.1642V20.091C553.122 17.1642 551.237 15.5056 547.468 15.1154C543.435 15.1154 538.079 17.5544 531.4 22.4325L515.73 37.1642L512.303 40.0417C511.876 40.2296 511.663 40.4087 511.663 40.5788C474.37 72.839 446.797 88.9691 428.944 88.9691C424.58 88.9691 422.068 87.1154 421.406 83.4081L424.382 83.1154C424.382 85.7821 426.597 87.1154 431.027 87.1154C445.442 87.1154 468.849 73.8796 501.249 47.4081L508.985 40.2861L512.258 37.9447C527.202 23.8308 535.302 16.7414 536.558 16.6764C541.319 14.3999 545.22 13.2617 548.262 13.2617Z"
                fill="black" />
        </clipPath>
        <clipPath id="clip-f1">
            <path id="F1"
                d="M553.32 32.9692H553.617C569.553 31.9285 582.976 31.4082 593.886 31.4082H602.713C629.559 31.4082 649.957 34.3676 663.909 40.2863C664.636 41.0667 665 41.522 665 41.6521V43.5058C664.206 44.7415 663.049 45.3594 661.529 45.3594H659.842C658.652 45.3594 657.693 44.4814 656.966 42.7253C639.907 36.4163 617.392 33.2619 589.423 33.2619C567.801 33.5871 555.601 34.2049 552.824 35.1155H549.353H549.055C524.127 37.457 511.663 39.2781 511.663 40.5789L508.985 40.2863H508.787C492.917 43.2781 479.561 46.6928 468.717 50.5302C456.749 54.8228 445.541 60.6115 435.094 67.896C427.953 74.0098 424.382 78.6602 424.382 81.8472V83.1155L421.406 83.4082C421.406 76.3188 430.135 67.9285 447.591 58.2375C455.724 53.8147 466.601 49.522 480.222 45.3594C490.273 42.5627 500.951 40.0911 512.258 37.9448L515.73 37.457H515.928C523.995 36.2212 535.401 34.8228 550.146 33.2619L553.32 32.9692Z"
                fill="black" />
        </clipPath>
        <clipPath id="clip-on2">
            <path id="ON2"
                d="M374.361 134.969C382.852 134.969 393.524 131.837 406.375 125.573L409.014 124.885C411.309 124.885 412.609 126.413 412.915 129.469V129.813C412.915 132.41 410.85 141.729 406.719 157.771V158.115H407.063C418.308 136.42 426.226 125.573 430.816 125.573H432.766C434.449 125.573 435.864 132.066 437.012 145.052C439.077 152.92 442.787 156.854 448.142 156.854H450.093C458.201 156.854 471.779 149.139 490.827 133.708H491.859C492.318 133.785 492.548 134.014 492.548 134.396V134.625C472.659 150.743 458.507 158.802 450.093 158.802H447.109C439.842 158.802 435.405 153.378 433.799 142.531C432.804 132.753 431.925 127.865 431.16 127.865H430.816C428.215 130.385 425.078 135.045 421.407 141.844C413.145 156.74 408.67 164.569 407.981 165.333C407.14 165.944 406.184 166.25 405.113 166.25H404.424C402.741 166.25 401.632 164.951 401.097 162.354V160.406C401.097 157.504 403.277 148.375 407.637 133.021V130.729C407.637 129.583 407.216 128.819 406.375 128.438H405.342C404.883 128.438 399.031 130.5 387.786 134.625C383.809 135.542 379.028 136.306 373.443 136.917H370.804H370.46C367.63 136.917 363.193 136.382 357.15 135.313L351.872 133.365C351.03 133.365 350.15 131.951 349.232 129.125C349.232 126.375 353.172 124.656 361.051 123.969L359.33 125.573C354.817 125.573 352.56 126.642 352.56 128.781V130.385H352.904L358.756 133.708C360.669 134.319 361.969 134.625 362.657 134.625H365.87C367.018 134.625 368.662 134.74 370.804 134.969H374.361Z"
                fill="black" />
        </clipPath>
        <clipPath id="clip-on1">
            <path id="ON1"
                d="M361.051 123.969C367.018 123.969 371.034 126.681 373.099 132.104C373.099 134.014 373.52 134.969 374.361 134.969L373.443 136.917C370.613 155.403 365.488 164.646 358.068 164.646C352.178 162.889 349.232 157.58 349.232 148.719C349.232 143.983 350.112 138.865 351.872 133.365L352.904 130.385C354.358 128.934 355.849 128.208 357.379 128.208H359.1C359.942 128.59 360.363 129.125 360.363 129.813C359.292 131.722 358.756 133.021 358.756 133.708L357.15 135.313V135.656C354.931 142.99 353.822 148.642 353.822 152.615C353.822 159.108 355.658 162.354 359.33 162.354C364.914 160.292 368.739 151.813 370.804 136.917V134.969C370.804 130.462 368.509 127.521 363.92 126.146C361.701 125.764 360.171 125.573 359.33 125.573L361.051 123.969Z"
                fill="black" />
        </clipPath>
        <clipPath id="clip-s2">
            <path id="S2"
                d="M312.859 159.604C328.311 146.618 341.009 137.948 350.954 133.594H351.642C352.025 133.67 352.216 133.899 352.216 134.281C344.566 138.712 337.07 143.41 329.726 148.375C324.371 152.118 319.131 156.472 314.006 161.438L311.941 163.156C300.925 174.691 295.417 183.667 295.417 190.083V192.146C295.417 195.125 297.292 197.188 301.04 198.333H304.253C308.613 198.333 312.553 194.399 316.071 186.531C316.913 183.858 317.334 181.681 317.334 180H319.95C319.615 188.365 315.568 194.667 307.81 198.906C305.668 199.67 304.023 200.052 302.876 200.052C297.139 200.052 293.773 197.684 292.778 192.948V190.885C292.778 183.552 298.898 173.736 311.137 161.438L312.859 159.604Z"
                fill="black" />
        </clipPath>
        <clipPath id="clip-s1">
            <path id="S1"
                d="M313.203 116.177H314.694C317.984 116.788 319.628 118.202 319.628 120.417V122.479C319.628 124.313 318.252 125.573 315.498 126.261H314.35C312.361 125.879 311.367 124.886 311.367 123.281C311.367 122.594 311.788 121.83 312.629 120.99V120.646C312.629 120.264 312.4 120.073 311.941 120.073H311.711C309.187 120.073 305.821 122.823 301.614 128.323C299.625 131.226 298.63 134.09 298.63 136.917V138.636C298.63 142.455 303.373 149.445 312.859 159.604L314.006 161.438C317.984 166.861 319.973 171.865 319.973 176.448V178.854C319.973 179.241 319.965 179.622 319.95 180H317.334V176.792C317.334 172.361 315.536 167.816 311.941 163.156L311.137 161.438C299.28 149.139 293.352 142.035 293.352 140.125C292.97 138.75 292.778 137.566 292.778 136.573V134.511C292.778 130.156 296.335 125.229 303.45 119.729C307.121 117.361 310.372 116.177 313.203 116.177Z"
                fill="black" />
        </clipPath>
        <clipPath id="clip-y2">
            <path id="Y2"
                d="M267.879 144.938C275.835 140.813 284.823 137.07 294.844 133.708H295.303C295.456 133.708 295.647 133.861 295.876 134.167C295.876 134.625 293.123 135.771 287.615 137.604C278.741 141.195 272.163 144.25 267.879 146.771L262.945 149.292C255.372 153.264 246.842 159.413 237.357 167.74C229.554 175.608 224.965 180.879 223.588 183.552C216.244 194.247 212.572 204.139 212.572 213.229C212.572 221.021 215.326 225.91 220.834 227.896C221.905 228.202 222.861 228.354 223.702 228.354C231.046 228.354 238.81 221.518 246.995 207.844C249.443 203.643 252.121 197.646 255.028 189.854H258.1C253.33 201.513 247.946 211.023 241.947 218.386C236.898 223.733 232.805 226.979 229.669 228.125C227.374 229.118 225.615 229.615 224.391 229.615H222.67C216.474 229.615 212.457 225.91 210.622 218.5C210.316 217.202 210.163 215.712 210.163 214.031V213.229C210.163 200.014 217.697 185.538 232.767 169.802C241.105 162.087 248.64 156.167 255.372 152.042C260.421 149.139 262.945 147.649 262.945 147.573L267.879 144.938Z"
                fill="black" />
        </clipPath>
        <clipPath id="clip-y1">
            <path id="Y1"
                d="M229.899 121.219H231.161C232.002 121.219 232.576 121.562 232.882 122.25V122.365C232.882 122.823 231.926 124.007 230.013 125.917C226.877 130.958 224.965 135.771 224.276 140.354C223.358 143.639 222.899 146.924 222.899 150.208C223.205 154.715 224.085 156.969 225.538 156.969H226.342C229.095 156.969 234.106 150.361 241.373 137.146C244.203 132.104 247.263 128.132 250.553 125.229C251.853 123.931 252.924 123.281 253.765 123.281C253.918 123.205 254.301 123.167 254.913 123.167H256.29C261.95 123.167 265.661 127.712 267.42 136.802C267.726 139.476 267.879 142.073 267.879 144.594V144.938V146.771C267.879 157.083 264.896 170.757 258.929 187.792C258.655 188.487 258.379 189.174 258.1 189.854H255.028C260.306 174.347 262.945 161.208 262.945 150.438V149.292V147.573V147.344C262.945 135.809 260.115 128.438 254.454 125.229C254.224 125.153 254.071 125.115 253.995 125.115C252.082 125.726 249.711 128.056 246.881 132.104C244.127 136.535 240.685 142.302 236.554 149.406C232.499 155.747 228.751 158.917 225.309 158.917C221.943 158.917 219.648 156.931 218.424 152.958C218.042 151.431 217.85 149.941 217.85 148.49V147.802C217.85 138.865 220.451 130.806 225.653 123.625C227.183 122.021 228.598 121.219 229.899 121.219Z"
                fill="black" />
        </clipPath>
        <clipPath id="clip-a2">
            <path id="A2"
                d="M170.461 123.74H170.576C171.341 123.74 171.876 124.16 172.182 125C172.259 125.153 172.335 125.458 172.412 125.917C171.876 131.722 171.609 135.962 171.609 138.636C171.609 149.33 173.789 156.09 178.149 158.917C179.526 159.833 181.171 160.292 183.083 160.292C191.192 160.292 203.622 151.507 220.375 133.938C220.757 133.708 221.216 133.594 221.752 133.594H222.096C222.402 133.594 222.631 133.708 222.784 133.938V134.052C222.784 134.281 222.172 135.007 220.949 136.229C204.272 153.417 191.421 162.011 182.395 162.011C175.969 162.011 171.723 157.962 169.658 149.865C168.663 145.893 168.166 141.156 168.166 135.656C168.243 131.073 168.357 128.018 168.51 126.49V126.261H168.396C167.478 127.254 166.254 129.202 164.724 132.104C163.959 133.708 163.538 134.511 163.462 134.511L158.298 142.646C157.226 144.401 156.044 146.196 154.751 148.031H151.987C152.752 147.038 154.435 144.556 157.036 140.584L162.544 132.104C166.063 126.528 168.702 123.74 170.461 123.74Z" />
        </clipPath>
        <clipPath id="clip-a1">
            <path id="A1"
                d="M163.462 134.511C164.227 136.955 164.609 138.445 164.609 138.979V139.438C164.609 140.813 163.653 141.997 161.741 142.99C161.129 143.143 160.593 143.219 160.134 143.219C159.522 143.219 158.91 143.028 158.298 142.646C158.298 142.646 157.745 142.318 157.5 142C157.144 141.54 157.036 140.584 157.036 140.584V137.375C157.036 132.639 156.08 129.736 154.167 128.667L153.364 128.552C150.075 128.552 145.944 133.976 140.972 144.823C137.989 152.157 136.497 157.466 136.497 160.75C136.497 162.507 136.956 163.386 137.874 163.386C140.245 163.386 144.95 158.268 151.987 148.032H154.751C152.724 150.911 150.426 153.89 147.857 156.969C142.425 163.386 138.218 166.594 135.235 166.594H135.005C132.787 166.594 131.41 164.761 130.874 161.094C130.798 160.559 130.76 159.91 130.76 159.146V158C130.76 152.5 132.557 145.969 136.153 138.407C141.125 129.164 146.594 124.542 152.561 124.542H153.02C156.845 124.542 159.981 127.063 162.429 132.104H162.544L163.462 134.511Z" />
        </clipPath>
        <clipPath id="clip-j2">
            <path id="J2"
                d="M119.859 103.802H120.203C125.787 102.198 132.787 100.708 141.201 99.3335C141.584 99.4863 141.89 99.5627 142.119 99.5627V100.25C142.119 101.09 138.409 101.969 130.989 102.886C123.339 104.719 119.515 105.827 119.515 106.208L113.892 107.698C110.297 108.004 99.6639 112.625 81.9933 121.563C71.8958 126.834 59.8477 135.924 45.8489 148.834C30.0907 165.715 19.649 180.84 14.5238 194.209C9.934 205.972 7.63912 215.674 7.63912 223.313C7.63912 238.743 13.6441 248.865 25.6539 253.677C29.7847 254.67 33.1123 255.167 35.6367 255.167C54.5312 255.167 72.1636 237.674 88.5337 202.688C96.2418 185.639 102.322 167.743 106.773 149H111.256C110.914 150.211 110.569 151.378 110.22 152.5C104.33 175.952 95.7244 197.455 84.403 217.011C68.7213 243.67 52.0451 257 34.3745 257C21.8291 257 12.8026 251.004 7.29488 239.011C5.76496 234.58 5 229.653 5 224.229C5 203.375 15.8242 180.153 37.4726 154.563C50.9359 140.813 61.6454 131.608 69.601 126.948C83.1408 117.858 97.981 110.754 114.122 105.636L119.859 103.802Z" />
        </clipPath>

        <clipPath id="clip-j1">
            <path id="J1"
                d="M82.2228 4H84.4029C101.921 4 113.433 17.6354 118.941 44.9063C120.547 53.0799 121.351 62.2084 121.351 72.2917V79.5104C121.351 84.7813 120.853 92.8785 119.859 103.802L119.515 106.208C117.04 123.989 114.287 138.253 111.256 149H106.773C107.049 147.84 107.318 146.677 107.581 145.51C109.417 138.559 111.521 125.955 113.892 107.698L114.122 105.635C115.116 94.941 115.613 85.2014 115.613 76.4167C115.613 49.757 110.603 30.125 100.582 17.5208C94.9977 11.7153 89.2987 8.8125 83.485 8.8125H81.3049C70.3659 8.8125 60.1537 16.1458 50.6682 30.8125C44.0895 42.4236 40.8002 53.9201 40.8002 65.3021C40.8002 74.9271 42.9803 84.4375 47.3406 93.8334C50.5534 94.5972 52.1598 95.9341 52.1598 97.8438V98.4167C52.1598 100.479 50.3622 101.663 46.7669 101.969C43.1715 101.969 40.0735 97.5764 37.4726 88.7917C34.8717 82.5278 33.5713 75.4236 33.5713 67.4792V66.2188C33.5713 48.0382 40.2647 31.7292 53.6515 17.2917C63.29 8.43055 72.8138 4 82.2228 4Z" />
        </clipPath>
    </g>

    <path class="clip f3" clip-path="url(#clip-f3)" stroke="#fff" stroke-width="10"
        d="M505 112L512.5 110L520.5 108L530.5 105.5L542 103L564.5 99.5L591 97.5H607.5L618 99.5L626 104.5" />
    <path class="clip f2" clip-path="url(#clip-f2)" stroke="#fff" stroke-width="10"
        d="M422.5 82.5L423.5 86L426 87.5L429.5 88H433L437.5 87L442 86L446 84.5L456 80L465.5 74.5L476.5 67.5L486 60.5L497 52L513 38.5L520 32L527 25.5L535 18.5L540 16L544.5 14.5L548.5 14L551 14.5L553 16L554.5 18.5V22.5L553 30L547.5 46.5L541 72L537 87.5L533.5 104L530 124L527 146L525.5 164L524 187V213.5L524.5 221L525 226L526 230" />
    <path class="clip f1" clip-path="url(#clip-f1)" stroke="#fff" stroke-width="10"
        d="M666.5 46.5L659.5 41L653 39L642 36.5L636 35L629 34L619.5 33L607.5 32.5H593.5H581L564 33L549.5 34L529.5 36.5L510.5 39L487.5 44L473.5 48L458 54L444.5 61L435.5 66.5L429.5 71.5L425 77L423 81V85.5" />

    <path class="clip on2" clip-path="url(#clip-on2)" stroke="#fff" stroke-width="8"
        d="M361 125H359H358H356L354.5 125.5L352.5 126.5L351 128L350.5 129.5L351 131L352 131.5L353 132L355.5 133.5L357 134L360 135L364.5 135.5L369 136H374L378.5 135.5L387 134L391.5 132.5L397 130.5L403 128L407.5 127H409L410.5 128.5V130L410 135L408 143L406.5 148.5L405 155L403.5 160.5L404 163H405.195L407 162L410 157L415.5 147.5L423 135L428 128.5L430.5 126.5L432 127L433.313 129.5L434.5 137L436 147.5L439 153L443 157C444 157.167 446.1 157.5 446.5 157.5C447 157.5 451 157.5 452 157.5C453 157.5 458.5 155.5 459 155.5C459.4 155.5 464.167 153.167 466.5 152L474 147.5L483 141L494 132.5" />
    <path class="clip on1" clip-path="url(#clip-on1)" stroke="#fff" stroke-width="8"
        d="M359 127.5L354 135L352.5 139.5L351.5 147.5V154.5L354 161L357.5 163.5H358.5H360L362.5 162L365.5 158.5L367 156L369.5 150.5L371 144.5L372.5 135.5L372 132.5L371 130L369 127.5L365.5 125.5L363.5 125L358.5 124.5" />

    <path class="clip s2" clip-path="url(#clip-s2)" stroke="#fff" stroke-width="15"
        d="M318.5 178.5V182.5L318 185L316.5 188.5L314.5 192L312 195L309 197.5L307 198.5L305 199H303.5H299.5L297.5 198L294.5 195L294 190.5L294.5 187L296 182.5L302 173L309.5 164L320.5 154.5L329.5 147.5L338 142L347.5 136L354 133" />
    <path class="clip s1" clip-path="url(#clip-s1)" stroke="#fff" stroke-width="15"
        d="M320 127L315.5 121.5L312 119.5L306.5 120L301 125L296.5 131L295.5 134V138L296.5 141.5L301 148L305.5 153.5L310 158.5L313 162L315 165L317 169L318 172L318.5 175.5V179V182" />

    <path class="clip y2" clip-path="url(#clip-y2)" stroke="#fff" stroke-width="15"
        d="M257 189L255 194L251.5 201.5L249.5 205.5L246.5 210.5L242.5 216.5L239 220.5L234.5 224.5L231 227L227 228.5L225 229H221.5L218.5 228L216.5 226.5L213.5 223.5L211.5 218V211L212 207L213 201.5L215.5 196L217 192.5L221 185.5L226 178.5L231.5 172.5L238 166L245.5 160L256.5 152L263.5 148L272.5 143.5L283.5 138.5L294 134.5L298.5 133" />
    <path class="clip y1" clip-path="url(#clip-y1)" stroke="#fff" stroke-width="15"
        d="M233.5 120L228 125L226 127.5L223 133.5L221.5 139.5L220.5 146.5V151.5L221.5 155L223 157.5L225.5 158C226 157.833 227.1 157.5 227.5 157.5C227.9 157.5 229.667 156.167 230.5 155.5L233 152.5L237 146.5L241 140L244 134.5L248.5 128.5L251 126L253.5 124H256.5L260 126L262.5 129L264 134.5L265 139L265.5 145V153.5L265 159L263.5 166.5L262 172.5L260.5 178.5L258.5 184L256 192" />

    <path class="clip a2" clip-path="url(#clip-a2)" stroke="#fff" stroke-width="15"
        d="M152.5 149L157.5 142L163.5 132.5L165.5 129L167 127L168.5 125.5L169.5 125H170.5V126.5L170 131V136V141.31L172 153L174 156.5L176.5 159L178.5 160.5L181.5 161H185L191 159L194.5 157.5L202 152L209 146.5L217 139L220.5 135.5L224 132.5" />
    <path class="clip a1" clip-path="url(#clip-a1)" stroke="#fff" stroke-width="15"
        d="M162 144L160.5 137L158.5 131L156 127.5L153.5 126.5L148 127.5L142.5 133.5L139.5 139L135 150.5L133 160L134 164.5L136 165L139 164L142.5 161.5L147 156.5L150.5 152L154 147" />

    <path class="clip j2" clip-path="url(#clip-j2)" stroke="#fff" stroke-width="15"
        d="M109.5 147L107.5 155.5L102 174L96.5 189L89 205L83 217L74.5 230L66.5 240L59 247L50.5 252.5L45.5 254.5L38 256H32.5L25 254.5L19.5 252L14 247.5L9.5 241L7 232.5L6 222.5L7 213L9.5 203L14.5 191L21 178.5L28 168L35.5 158.5L41.5 152L49 144.5L63.5 132.5L78.5 122.5L97 113L110.5 107.5L122.5 104L139.5 100.5L144.5 99.5" />
    <path class="clip j1" clip-path="url(#clip-j1)" stroke="#fff" stroke-width="15"
        d="M50.5 102L44 95L38 78L36 67L38.5 49.5L47.5 28L61.5 13.5L71 8L81.5 6L90.5 7L101 13L111 28L116 45L118.5 67.5V92L117 107.5L114.5 123.5L112 137L110 146.5L109 150.5" />
</svg>