<svg width="28" height="28" viewBox="0 0 28 28" fill="none" xmlns="http://www.w3.org/2000/svg">
<path d="M14 27C21.1797 27 27 21.1797 27 14C27 6.8203 21.1797 1 14 1C6.8203 1 1 6.8203 1 14C1 21.1797 6.8203 27 14 27Z" stroke="white" stroke-linecap="round" stroke-linejoin="round"/>
<path d="M14 19C16.7614 19 19 16.7614 19 14C19 11.2386 16.7614 9 14 9C11.2386 9 9 11.2386 9 14C9 16.7614 11.2386 19 14 19Z" stroke="white" stroke-linecap="round" stroke-linejoin="round"/>
<path d="M9 14V2M14 9H26M19 14V26M14 19H2" stroke="white" stroke-linecap="round" stroke-linejoin="round"/>
</svg>
