<svg viewBox="0 0 48 39" fill="none" xmlns="http://www.w3.org/2000/svg">
<path fill-rule="evenodd" clip-rule="evenodd" d="M0.542314 14.4969C0.713785 14.3341 0.917487 14.205 1.14175 14.1168C1.36601 14.0287 1.60643 13.9834 1.84924 13.9834C2.09204 13.9834 2.33246 14.0287 2.55673 14.1168C2.78099 14.205 2.98469 14.3341 3.15616 14.4969L24.0005 34.2379L44.8448 14.4969C45.1914 14.1687 45.6615 13.9843 46.1517 13.9843C46.6419 13.9843 47.112 14.1687 47.4587 14.4969C47.8053 14.8251 48 15.2703 48 15.7344C48 16.1986 47.8053 16.6437 47.4587 16.9719L25.3074 37.947C25.1359 38.1098 24.9322 38.2389 24.708 38.3271C24.4837 38.4152 24.2433 38.4605 24.0005 38.4605C23.7577 38.4605 23.5173 38.4152 23.293 38.3271C23.0687 38.2389 22.865 38.1098 22.6936 37.947L0.542314 16.9719C0.370408 16.8096 0.23402 16.6167 0.140961 16.4043C0.0479015 16.192 0 15.9643 0 15.7344C0 15.5045 0.0479015 15.2768 0.140961 15.0645C0.23402 14.8521 0.370408 14.6593 0.542314 14.4969Z" fill="#B0B0B5"/>
<path fill-rule="evenodd" clip-rule="evenodd" d="M0.542314 0.513518C0.713785 0.35074 0.917487 0.221594 1.14175 0.133476C1.36601 0.0453581 1.60643 0 1.84924 0C2.09204 0 2.33246 0.0453581 2.55673 0.133476C2.78099 0.221594 2.98469 0.35074 3.15616 0.513518L24.0005 20.2546L44.8448 0.513518C45.0164 0.351003 45.2202 0.22209 45.4444 0.134138C45.6687 0.0461854 45.909 0.000916822 46.1517 0.000916822C46.3945 0.000916822 46.6348 0.0461854 46.859 0.134138C47.0833 0.22209 47.287 0.351003 47.4587 0.513518C47.6303 0.676033 47.7664 0.868966 47.8593 1.0813C47.9522 1.29364 48 1.52122 48 1.75105C48 1.98088 47.9522 2.20846 47.8593 2.42079C47.7664 2.63313 47.6303 2.82606 47.4587 2.98858L25.3074 23.9637C25.1359 24.1264 24.9322 24.2556 24.708 24.3437C24.4837 24.4318 24.2433 24.4772 24.0005 24.4772C23.7577 24.4772 23.5173 24.4318 23.293 24.3437C23.0687 24.2556 22.865 24.1264 22.6936 23.9637L0.542314 2.98858C0.370408 2.82621 0.23402 2.63333 0.140961 2.42097C0.0479015 2.20861 0 1.98096 0 1.75105C0 1.52114 0.0479015 1.29348 0.140961 1.08113C0.23402 0.86877 0.370408 0.675885 0.542314 0.513518Z" fill="#B0B0B5"/>
</svg>
