<svg viewBox="0 0 162 80" fill="none" xmlns="http://www.w3.org/2000/svg">
<path d="M22.745 3.9192H23.3862C28.5381 3.9192 31.924 7.93501 33.5438 15.9666C34.0163 18.3739 34.2525 21.0623 34.2525 24.032V26.158C34.2525 27.7103 34.1063 30.0951 33.8138 33.3122H33.915C35.5573 32.8398 37.6159 32.4011 40.0906 31.9961C40.2031 32.0411 40.2931 32.0636 40.3606 32.0636V32.2661C40.3606 32.5136 39.2694 32.7723 37.0872 33.0423C34.8374 33.5822 33.7126 33.9084 33.7126 34.0209C32.9026 39.8478 31.9915 44.3923 30.9791 47.6544C29.2468 54.5611 26.7158 60.8942 23.3862 66.6536C18.7742 74.5052 13.8697 78.431 8.6728 78.431C4.9832 78.431 2.32849 76.665 0.708672 73.1329C0.258722 71.828 0.0337463 70.3769 0.0337463 68.7796C0.0337463 62.6378 3.21715 55.7985 9.58395 48.2618C13.5435 44.2123 16.6932 41.5013 19.0329 40.129C23.015 37.4518 27.3795 35.3595 32.1265 33.8522C32.4189 30.7025 32.5652 27.8341 32.5652 25.2469C32.5652 17.3952 31.0916 11.6134 28.1444 7.90126C26.5021 6.19145 24.826 5.33654 23.1162 5.33654H22.475C19.2579 5.33654 16.2545 7.49631 13.4648 11.8158C11.53 15.2355 10.5626 18.6213 10.5626 21.9735C10.5626 24.8082 11.2038 27.6091 12.4861 30.3763C13.431 30.6013 13.9035 30.995 13.9035 31.5574V31.7261C13.9035 32.3336 13.3748 32.6823 12.3174 32.7723C11.26 32.7723 10.3489 31.4787 9.58395 28.8915C8.81903 27.0467 8.43657 24.9544 8.43657 22.6146V22.2434C8.43657 16.889 10.4051 12.0858 14.3422 7.83377C17.1769 5.22406 19.9778 3.9192 22.745 3.9192ZM0.809911 68.5096C0.809911 73.0541 2.57597 76.035 6.10808 77.4524C7.32295 77.7449 8.30159 77.8911 9.04401 77.8911C14.6009 77.8911 19.7866 72.7392 24.6011 62.4353C27.0083 57.1034 28.8756 51.4902 30.2029 45.5959C30.7429 43.5486 31.3616 39.8365 32.059 34.4596C31.0016 34.5496 27.8744 35.9107 22.6775 38.5429C19.7078 40.0952 16.1645 42.7724 12.0474 46.5745C7.41294 51.5465 4.34202 56.001 2.83469 59.9381C1.48484 63.4027 0.809911 66.2599 0.809911 68.5096ZM48.6959 39.1841H48.7297C48.9546 39.1841 49.1121 39.3078 49.2021 39.5553C49.2246 39.6003 49.2471 39.6903 49.2696 39.8253C49.1121 41.5351 49.0334 42.7837 49.0334 43.5711C49.0334 46.7208 49.6746 48.7118 50.9569 49.5442C51.3619 49.8142 51.8456 49.9492 52.408 49.9492C54.7927 49.9492 58.4486 47.3619 63.3755 42.1875C63.488 42.12 63.623 42.0863 63.7805 42.0863H63.8817C63.9717 42.0863 64.0392 42.12 64.0842 42.1875V42.2212C64.0842 42.2887 63.9042 42.5025 63.5443 42.8624C58.6398 47.9244 54.8602 50.4553 52.2055 50.4553C50.3157 50.4553 49.0671 49.263 48.4597 46.8782C48.1672 45.7084 48.021 44.3135 48.021 42.6937C48.0435 41.3438 48.0772 40.4439 48.1222 39.994C48.1222 39.9715 48.1222 39.949 48.1222 39.9265H48.0885C47.8185 40.219 47.4585 40.7927 47.0086 41.6476C46.7836 42.12 46.6599 42.3562 46.6374 42.3562C46.8624 43.0762 46.9748 43.5149 46.9748 43.6723V43.8073C46.9748 44.2123 46.6936 44.561 46.1312 44.8535C45.9512 44.8985 45.7937 44.921 45.6587 44.921C45.4788 44.921 45.2988 44.8647 45.1188 44.7522C44.3089 46.0796 43.2853 47.4857 42.0479 48.9705C40.4506 50.8603 39.2132 51.8052 38.3358 51.8052H38.2683C37.6159 51.8052 37.2109 51.2653 37.0534 50.1854C37.0309 50.0279 37.0197 49.8367 37.0197 49.6117V49.2742C37.0197 47.6544 37.5484 45.7309 38.6058 43.5036C40.0681 40.7814 41.6767 39.4203 43.4315 39.4203H43.5665C44.6913 39.4203 45.6137 40.1627 46.3337 41.6476H46.3674C47.4023 40.0052 48.1785 39.1841 48.6959 39.1841ZM38.707 50.0841C38.707 50.6016 38.842 50.8603 39.112 50.8603C39.8094 50.8603 41.193 49.353 43.2628 46.3383C43.4877 46.0458 43.9827 45.3147 44.7476 44.1448V44.0435V43.1999C44.7476 41.805 44.4664 40.9501 43.9039 40.6352C43.7465 40.6127 43.6677 40.6014 43.6677 40.6014C42.7003 40.6014 41.4855 42.1988 40.0231 45.3934C39.1457 47.5532 38.707 49.1167 38.707 50.0841ZM66.1765 38.4417H66.5477C66.7952 38.4417 66.9639 38.5429 67.0539 38.7454V38.7791C67.0539 38.9141 66.7727 39.2628 66.2102 39.8253C65.2878 41.3101 64.7254 42.7274 64.5229 44.0773C64.253 45.0447 64.118 46.0121 64.118 46.9795C64.208 48.3068 64.4667 48.9705 64.8941 48.9705H65.1304C65.9403 48.9705 67.4139 47.0245 69.5511 43.1324C70.3835 41.6476 71.2834 40.4777 72.2508 39.6228C72.6333 39.2403 72.9483 39.0491 73.1957 39.0491C73.2407 39.0266 73.3532 39.0154 73.5332 39.0154H73.9381C75.603 39.0154 76.6941 40.354 77.2115 43.0312C77.3015 43.8186 77.3465 44.5835 77.3465 45.3259V45.4271C79.6863 44.2123 82.3297 43.1099 85.2769 42.12H85.4119C85.4569 42.12 85.5131 42.165 85.5806 42.255C85.5806 42.39 84.7707 42.7274 83.1509 43.2674C80.5412 44.3248 78.6064 45.2247 77.3465 45.9671C77.3465 49.0043 76.4691 53.0313 74.7143 58.0483C73.252 61.7604 71.5872 64.7638 69.7199 67.0585C68.235 68.6334 67.0314 69.5895 66.109 69.927C65.4341 70.2194 64.9166 70.3657 64.5567 70.3657H64.0505C62.2282 70.3657 61.0471 69.2745 60.5071 67.0923C60.4171 66.7098 60.3721 66.2711 60.3721 65.7762V65.5399C60.3721 61.6479 62.5881 57.3846 67.0202 52.7501C69.4724 50.4778 71.6884 48.7343 73.6682 47.5194C75.153 46.6645 75.8954 46.2258 75.8954 46.2033V46.1358C75.8954 42.7387 75.063 40.5677 73.3982 39.6228C73.3307 39.6003 73.2857 39.589 73.2632 39.589C72.7008 39.769 72.0034 40.4552 71.1709 41.6476C70.361 42.9524 69.3486 44.651 68.1338 46.7433C66.9414 48.6105 65.839 49.5442 64.8266 49.5442C63.8368 49.5442 63.1618 48.9593 62.8019 47.7894C62.6894 47.3394 62.6331 46.9007 62.6331 46.4733V46.2708C62.6331 43.6386 63.398 41.2651 64.9279 39.1503C65.3778 38.6779 65.794 38.4417 66.1765 38.4417ZM61.0808 65.5399C61.0808 67.8347 61.8907 69.2745 63.5105 69.8595C63.8255 69.9495 64.1067 69.9945 64.3542 69.9945C66.514 69.9945 68.7975 67.9809 71.2047 63.9539C71.9246 62.7165 72.712 60.9504 73.5669 58.6557C75.1193 54.0887 75.8954 50.2191 75.8954 47.047V46.7095C73.6682 47.8794 71.1597 49.6904 68.37 52.1427C66.0753 54.4599 64.7254 56.0122 64.3204 56.7996C62.1607 59.9493 61.0808 62.8627 61.0808 65.5399ZM90.6763 36.9568H91.115C92.0824 37.1368 92.5661 37.553 92.5661 38.2054V38.8129C92.5661 39.3528 92.1611 39.724 91.3512 39.9265H91.0138C90.4288 39.814 90.1364 39.5215 90.1364 39.0491C90.1364 38.8466 90.2601 38.6216 90.5076 38.3742V38.2729C90.5076 38.1604 90.4401 38.1042 90.3051 38.1042H90.2376C89.4952 38.1042 88.5053 38.9141 87.2679 40.5339C86.683 41.3888 86.3905 42.2325 86.3905 43.0649V43.5711C86.3905 44.696 87.7854 46.7545 90.5751 49.7467C95.1196 45.9221 98.8542 43.3686 101.779 42.0863H101.981C102.094 42.1088 102.15 42.1763 102.15 42.2887C99.9003 43.5936 97.6955 44.9772 95.5358 46.4395C93.9609 47.5419 92.4199 48.8243 90.9125 50.2866C92.0824 51.8839 92.6673 53.3575 92.6673 54.7074V55.4161C92.6673 58.0483 91.475 60.0168 89.0902 61.3217C88.4603 61.5466 87.9766 61.6591 87.6391 61.6591C85.9518 61.6591 84.9619 60.9617 84.6695 59.5668V58.9594C84.6695 56.7996 86.4693 53.9087 90.0689 50.2866C86.5818 46.6645 84.8382 44.5722 84.8382 44.0098C84.7257 43.6048 84.6695 43.2561 84.6695 42.9637V42.3562C84.6695 41.0739 85.7156 39.6228 87.8079 38.003C88.8877 37.3055 89.8439 36.9568 90.6763 36.9568ZM90.3051 50.7928C87.0654 54.1899 85.4456 56.8334 85.4456 58.7232V59.3306C85.4456 60.208 85.9968 60.8155 87.0992 61.1529H88.0441C89.3265 61.1529 90.4851 59.9943 91.52 57.6771C91.7674 56.8896 91.8912 56.2485 91.8912 55.7535V54.8086C91.8912 53.5038 91.3625 52.1652 90.3051 50.7928ZM104.749 39.2516C106.503 39.2516 107.684 40.0502 108.292 41.6476C108.292 42.21 108.416 42.4912 108.663 42.4912C111.16 42.4912 114.299 41.5688 118.078 39.724L118.854 39.5215C119.529 39.5215 119.912 39.9715 120.002 40.8714V40.9726C120.002 41.7376 119.394 44.4823 118.18 49.2067V49.308H118.281C121.588 42.9187 123.916 39.724 125.266 39.724H125.84C126.335 39.724 126.751 41.6363 127.089 45.4609C127.696 47.7781 128.787 48.9368 130.362 48.9368H130.936C133.32 48.9368 137.314 46.6645 142.916 42.12H143.219C143.354 42.1425 143.422 42.21 143.422 42.3225V42.39C137.572 47.137 133.41 49.5104 130.936 49.5104H130.058C127.921 49.5104 126.616 47.9131 126.144 44.7185C125.851 41.8388 125.592 40.3989 125.368 40.3989H125.266C124.501 41.1414 123.579 42.5137 122.499 44.516C120.069 48.903 118.753 51.209 118.551 51.434C118.303 51.614 118.022 51.704 117.707 51.704H117.505C117.01 51.704 116.683 51.3215 116.526 50.5566V49.9829C116.526 49.128 117.167 46.4395 118.45 41.9175V41.2426C118.45 40.9051 118.326 40.6802 118.078 40.5677H117.775C117.64 40.5677 115.919 41.1751 112.611 42.39C111.442 42.66 110.035 42.8849 108.393 43.0649C107.561 48.5093 106.053 51.2315 103.871 51.2315C102.139 50.7141 101.273 49.1505 101.273 46.5408C101.273 45.1459 101.531 43.6386 102.049 42.0188C101.801 42.0188 101.543 41.6026 101.273 40.7702C101.273 39.9602 102.431 39.4541 104.749 39.2516ZM102.251 40.6689V41.1414H102.353C102.78 40.7139 103.219 40.5002 103.669 40.5002H104.175C104.422 40.6127 104.546 40.7702 104.546 40.9726C104.231 41.5351 104.074 41.9175 104.074 42.12C104.636 42.3 105.018 42.39 105.221 42.39H106.166C106.503 42.39 106.987 42.4237 107.617 42.4912C107.617 41.1639 106.942 40.2977 105.592 39.8928C104.94 39.7803 104.49 39.724 104.242 39.724C102.915 39.724 102.251 40.039 102.251 40.6689ZM103.601 42.6937C102.949 44.8535 102.622 46.5183 102.622 47.6881C102.622 49.6004 103.162 50.5566 104.242 50.5566C105.885 49.9492 107.01 47.4519 107.617 43.0649H107.516C106.683 43.0649 105.378 42.9074 103.601 42.5925V42.6937Z" fill="black"/>
<path d="M71.92 12.624L71.552 13.136C70.944 12.656 70.224 12.416 69.392 12.416C68.8053 12.416 68.3413 12.5387 68 12.784C67.6587 13.0293 67.488 13.3707 67.488 13.808C67.488 14.256 67.6427 14.6027 67.952 14.848C68.272 15.0827 68.8427 15.296 69.664 15.488C70.5173 15.6907 71.136 15.9787 71.52 16.352C71.9147 16.7253 72.112 17.2267 72.112 17.856C72.112 18.5813 71.8453 19.1573 71.312 19.584C70.7787 20.0107 70.1013 20.224 69.28 20.224C68.6933 20.224 68.1707 20.144 67.712 19.984C67.2533 19.824 66.832 19.5893 66.448 19.28L66.832 18.784C67.216 19.0613 67.5893 19.264 67.952 19.392C68.3253 19.52 68.7627 19.584 69.264 19.584C69.8827 19.584 70.3733 19.4347 70.736 19.136C71.1093 18.8373 71.296 18.4267 71.296 17.904C71.296 17.5627 71.232 17.2853 71.104 17.072C70.976 16.8587 70.7573 16.6773 70.448 16.528C70.1387 16.368 69.7013 16.2187 69.136 16.08C68.2613 15.8773 67.632 15.6053 67.248 15.264C66.8747 14.912 66.688 14.4427 66.688 13.856C66.688 13.216 66.9333 12.7147 67.424 12.352C67.9147 11.9787 68.5653 11.792 69.376 11.792C70.3893 11.792 71.2373 12.0693 71.92 12.624ZM74.3321 8.672H75.1321V13.456H75.1641C75.4095 12.9653 75.7775 12.5653 76.2681 12.256C76.7588 11.9467 77.3615 11.792 78.0761 11.792C79.0788 11.792 79.8255 12.0907 80.3161 12.688C80.8068 13.2747 81.0521 14.0213 81.0521 14.928V20H80.2521V15.072C80.2521 14.3253 80.0655 13.7067 79.6921 13.216C79.3188 12.7147 78.7268 12.464 77.9161 12.464C77.3615 12.464 76.8708 12.592 76.4441 12.848C76.0281 13.0933 75.7028 13.4347 75.4681 13.872C75.2441 14.2987 75.1321 14.7733 75.1321 15.296V20H74.3321V8.672ZM91.0463 15.984C91.0463 16.816 90.8916 17.552 90.5823 18.192C90.2836 18.832 89.8409 19.3333 89.2543 19.696C88.6783 20.048 87.9796 20.224 87.1583 20.224C86.3476 20.224 85.6489 20.048 85.0623 19.696C84.4863 19.3333 84.0436 18.832 83.7343 18.192C83.4356 17.552 83.2863 16.816 83.2863 15.984C83.2863 14.704 83.6223 13.6853 84.2943 12.928C84.9769 12.16 85.9316 11.776 87.1583 11.776C88.3849 11.776 89.3396 12.16 90.0223 12.928C90.7049 13.6853 91.0463 14.704 91.0463 15.984ZM84.1023 15.984C84.1023 17.0507 84.3583 17.9147 84.8703 18.576C85.3929 19.2373 86.1503 19.568 87.1423 19.568C88.1556 19.568 88.9236 19.2427 89.4463 18.592C89.9689 17.9307 90.2303 17.0613 90.2303 15.984C90.2303 14.9173 89.9689 14.0587 89.4463 13.408C88.9236 12.7573 88.1556 12.432 87.1423 12.432C86.1396 12.432 85.3823 12.7573 84.8703 13.408C84.3583 14.0587 84.1023 14.9173 84.1023 15.984ZM100.562 15.984C100.562 16.816 100.407 17.552 100.098 18.192C99.7992 18.832 99.3565 19.3333 98.7699 19.696C98.1939 20.048 97.4952 20.224 96.6739 20.224C95.8632 20.224 95.1645 20.048 94.5779 19.696C94.0019 19.3333 93.5592 18.832 93.2499 18.192C92.9512 17.552 92.8019 16.816 92.8019 15.984C92.8019 14.704 93.1379 13.6853 93.8099 12.928C94.4925 12.16 95.4472 11.776 96.6739 11.776C97.9005 11.776 98.8552 12.16 99.5379 12.928C100.221 13.6853 100.562 14.704 100.562 15.984ZM93.6179 15.984C93.6179 17.0507 93.8739 17.9147 94.3859 18.576C94.9085 19.2373 95.6659 19.568 96.6579 19.568C97.6712 19.568 98.4392 19.2427 98.9619 18.592C99.4845 17.9307 99.7459 17.0613 99.7459 15.984C99.7459 14.9173 99.4845 14.0587 98.9619 13.408C98.4392 12.7573 97.6712 12.432 96.6579 12.432C95.6552 12.432 94.8979 12.7573 94.3859 13.408C93.8739 14.0587 93.6179 14.9173 93.6179 15.984ZM103.903 12.016H106.159V12.64H103.903V18.144C103.903 18.6347 104.015 18.9973 104.239 19.232C104.474 19.456 104.794 19.568 105.199 19.568C105.477 19.568 105.765 19.5253 106.063 19.44L106.191 20.032C105.861 20.16 105.487 20.224 105.071 20.224C104.463 20.224 103.983 20.048 103.631 19.696C103.279 19.344 103.103 18.8427 103.103 18.192V12.64H101.599V12.112L103.103 12.016V9.92L103.903 9.632V12.016ZM108.08 19.504C108.08 19.0987 108.283 18.896 108.688 18.896C109.093 18.896 109.296 19.0987 109.296 19.504C109.296 19.8987 109.093 20.096 108.688 20.096C108.283 20.096 108.08 19.8987 108.08 19.504ZM113.007 21.76C113.007 22.56 112.836 23.152 112.495 23.536C112.154 23.9307 111.636 24.128 110.943 24.128C110.698 24.128 110.479 24.1013 110.287 24.048L110.431 23.44C110.58 23.4613 110.724 23.472 110.863 23.472C111.343 23.472 111.684 23.3333 111.887 23.056C112.1 22.7893 112.207 22.3627 112.207 21.776V12.016H113.007V21.76ZM111.999 9.056C111.999 8.66133 112.202 8.464 112.607 8.464C113.012 8.464 113.215 8.66133 113.215 9.056C113.215 9.44 113.012 9.632 112.607 9.632C112.202 9.632 111.999 9.44 111.999 9.056ZM115.252 17.872C115.252 17.1787 115.422 16.6347 115.764 16.24C116.105 15.8453 116.612 15.568 117.284 15.408C117.966 15.2373 118.846 15.152 119.924 15.152C120.308 15.152 120.601 15.1573 120.804 15.168V14.64C120.804 13.168 120.052 12.432 118.548 12.432C118.057 12.432 117.614 12.496 117.22 12.624C116.825 12.7413 116.436 12.9173 116.052 13.152L115.764 12.608C116.564 12.064 117.502 11.792 118.58 11.792C119.604 11.792 120.361 12.0427 120.852 12.544C121.353 13.0347 121.604 13.7867 121.604 14.8V18.256C121.604 18.7573 121.636 19.3387 121.7 20H120.964C120.921 19.6267 120.889 19.184 120.868 18.672H120.836C120.558 19.1733 120.164 19.5627 119.652 19.84C119.15 20.1067 118.537 20.24 117.812 20.24C117.012 20.24 116.382 20.0373 115.924 19.632C115.476 19.216 115.252 18.6293 115.252 17.872ZM120.804 17.168V15.76L120.004 15.744C119.065 15.744 118.313 15.808 117.748 15.936C117.182 16.0533 116.761 16.2667 116.484 16.576C116.206 16.8747 116.068 17.296 116.068 17.84C116.068 18.4053 116.233 18.8373 116.564 19.136C116.894 19.4347 117.364 19.584 117.972 19.584C118.59 19.584 119.113 19.456 119.54 19.2C119.966 18.944 120.281 18.6293 120.484 18.256C120.697 17.8827 120.804 17.52 120.804 17.168ZM125.812 22.272C125.588 22.9227 125.305 23.392 124.964 23.68C124.622 23.9787 124.18 24.128 123.636 24.128C123.305 24.128 123.012 24.08 122.756 23.984L122.916 23.376C123.108 23.4293 123.321 23.456 123.556 23.456C123.961 23.456 124.281 23.3387 124.516 23.104C124.75 22.8693 124.948 22.5227 125.108 22.064L125.796 20.048L122.676 12.016H123.524L126.212 19.136H126.228L128.724 12.016H129.556L125.812 22.272ZM135.561 12.624L135.193 13.136C134.585 12.656 133.865 12.416 133.033 12.416C132.446 12.416 131.982 12.5387 131.641 12.784C131.299 13.0293 131.129 13.3707 131.129 13.808C131.129 14.256 131.283 14.6027 131.593 14.848C131.913 15.0827 132.483 15.296 133.305 15.488C134.158 15.6907 134.777 15.9787 135.161 16.352C135.555 16.7253 135.753 17.2267 135.753 17.856C135.753 18.5813 135.486 19.1573 134.953 19.584C134.419 20.0107 133.742 20.224 132.921 20.224C132.334 20.224 131.811 20.144 131.353 19.984C130.894 19.824 130.473 19.5893 130.089 19.28L130.473 18.784C130.857 19.0613 131.23 19.264 131.593 19.392C131.966 19.52 132.403 19.584 132.905 19.584C133.523 19.584 134.014 19.4347 134.377 19.136C134.75 18.8373 134.937 18.4267 134.937 17.904C134.937 17.5627 134.873 17.2853 134.745 17.072C134.617 16.8587 134.398 16.6773 134.089 16.528C133.779 16.368 133.342 16.2187 132.777 16.08C131.902 15.8773 131.273 15.6053 130.889 15.264C130.515 14.912 130.329 14.4427 130.329 13.856C130.329 13.216 130.574 12.7147 131.065 12.352C131.555 11.9787 132.206 11.792 133.017 11.792C134.03 11.792 134.878 12.0693 135.561 12.624ZM145.109 15.984C145.109 16.816 144.954 17.552 144.645 18.192C144.346 18.832 143.903 19.3333 143.317 19.696C142.741 20.048 142.042 20.224 141.221 20.224C140.41 20.224 139.711 20.048 139.125 19.696C138.549 19.3333 138.106 18.832 137.797 18.192C137.498 17.552 137.349 16.816 137.349 15.984C137.349 14.704 137.685 13.6853 138.357 12.928C139.039 12.16 139.994 11.776 141.221 11.776C142.447 11.776 143.402 12.16 144.085 12.928C144.767 13.6853 145.109 14.704 145.109 15.984ZM138.165 15.984C138.165 17.0507 138.421 17.9147 138.933 18.576C139.455 19.2373 140.213 19.568 141.205 19.568C142.218 19.568 142.986 19.2427 143.509 18.592C144.031 17.9307 144.293 17.0613 144.293 15.984C144.293 14.9173 144.031 14.0587 143.509 13.408C142.986 12.7573 142.218 12.432 141.205 12.432C140.202 12.432 139.445 12.7573 138.933 13.408C138.421 14.0587 138.165 14.9173 138.165 15.984ZM147.472 13.744C147.472 13.232 147.44 12.656 147.376 12.016H148.128C148.192 12.5707 148.224 13.0667 148.224 13.504H148.256C148.512 12.9813 148.886 12.5653 149.376 12.256C149.878 11.9467 150.491 11.792 151.216 11.792C152.219 11.792 152.966 12.0907 153.456 12.688C153.947 13.2747 154.192 14.0213 154.192 14.928V20H153.392V15.072C153.392 14.3253 153.206 13.7067 152.832 13.216C152.459 12.7147 151.867 12.464 151.056 12.464C150.502 12.464 150.011 12.592 149.584 12.848C149.168 13.0933 148.843 13.4347 148.608 13.872C148.384 14.2987 148.272 14.7733 148.272 15.296V20H147.472V13.744ZM160.845 8.608L160.685 9.184C160.365 9.12 160.034 9.088 159.693 9.088C159.127 9.09867 158.706 9.26933 158.429 9.6C158.151 9.93067 158.013 10.4 158.013 11.008V12.016H160.109V12.64H158.013V20H157.213V12.64H155.709V12.128L157.213 12.016V10.992C157.213 10.1707 157.421 9.54133 157.837 9.104C158.253 8.66667 158.85 8.448 159.629 8.448C160.055 8.448 160.461 8.50133 160.845 8.608Z" fill="black"/>
</svg>
